<svg width="74px" height="58px" viewBox="0 0 74 58" version="1.1" xmlns="http://www.w3.org/2000/svg" xmlns:xlink="http://www.w3.org/1999/xlink">
    <!-- Generator: Sketch 49 (51002) - http://www.bohemiancoding.com/sketch -->
    <desc>Created with Sketch.</desc>
    <defs>
        <polygon id="path-1" points="0.064180665 0.21273383 54.0397286 0.21273383 54.0397286 39.7220844 0.064180665 39.7220844"></polygon>
    </defs>
    <g id="Page-1" stroke="none" stroke-width="1" fill="none" fill-rule="evenodd">
        <g id="1440---Large-HD-Screen" transform="translate(-85.000000, -21.000000)">
            <g id="Header">
                <g id="KC-Logo" transform="translate(85.000000, 21.000000)">
                    <polygon id="Fill-1" fill="#464646" points="32.3072042 36.1721847 34.3010753 41.1612903 31.9111445 41.1612903 30.340479 37.3979966 29.5212138 37.3979966 29.5212138 41.1612903 27.3090892 41.1612903 27.3090892 32.2232907 26.8172043 31.1827957 29.5212138 31.1827957 29.5212138 34.9460894 30.340479 34.9460894 31.9111445 31.1827957 34.3010753 31.1827957"></polygon>
                    <path d="M39.4070267,37.0131948 L38.6800451,32.6369952 L37.9399526,37.0131948 L39.4070267,37.0131948 Z M39.7570054,39.0800169 L37.5899739,39.0800169 L37.2397277,41.1612903 L34.9247312,41.1612903 L36.7013813,32.2235741 L36.2034376,31.1827957 L40.4433168,31.1827957 L42.4086022,41.1612903 L40.1069841,41.1612903 L39.7570054,39.0800169 Z" id="Fill-2" fill="#464646"></path>
                    <g id="Group-28">
                        <path d="M46.1944188,36.1746264 L47.8244134,36.1746264 C48.0311832,36.1746264 48.197313,36.0080143 48.197313,35.7997492 L48.197313,33.7184775 C48.197313,33.5102124 48.0311832,33.3436003 47.8244134,33.3436003 L46.1944188,33.3436003 L46.1944188,36.1746264 Z M49.4958717,37.7841983 L50.4349858,41.0314787 L48.197313,41.0314787 L47.3820412,38.2004527 L46.1944188,38.2004527 L46.1944188,41.0314787 L43.956746,41.0314787 L43.956746,32.3304113 L43.4591803,31.3174982 L48.5702127,31.3174982 C49.5925291,31.3174982 50.4349858,32.1640751 50.4349858,33.1910565 L50.4349858,35.9525689 C50.4349858,36.7020474 50.0623607,37.367944 49.4958717,37.7841983 Z" id="Fill-3" fill="#464646"></path>
                        <path d="M56.1412573,36.9932599 L55.3954579,32.7330664 L54.6356542,36.9932599 L56.1412573,36.9932599 Z M56.5004273,39.0052938 L54.2764842,39.0052938 L53.9170397,41.031396 L51.5415203,41.031396 L53.3648296,32.3306044 L52.8535342,31.3174154 L57.2050374,31.3174154 L59.221936,41.031396 L56.8595972,41.031396 L56.5004273,39.0052938 Z" id="Fill-5" fill="#464646"></path>
                        <polygon id="Fill-7" fill="#464646" points="65.3420493 31.3174982 65.3420493 33.3295321 63.3251507 33.3295321 63.3251507 41.0314787 61.0877525 41.0314787 61.0877525 33.3295321 59.0848583 33.3295321 59.0848583 31.3174982"></polygon>
                        <polygon id="Fill-9" fill="#464646" points="68.7694039 39.0054318 72.6370712 39.0054318 71.5180975 41.0315339 66.5449117 41.0315339 66.5449117 32.3304665 66.0341654 31.3175533 72.6370712 31.3175533 71.5180975 33.3436555 68.7694039 33.3436555 68.7694039 35.1614926 71.9050015 35.1614926 70.7860279 37.1875947 68.7694039 37.1875947"></polygon>
                        <path d="M31.5996245,46.7938015 L31.5996245,45.3604963 C31.5996245,45.1693338 31.4365152,45.0054802 31.2324913,45.0054802 L29.9959911,45.0054802 C29.7919671,45.0054802 29.6288579,45.1693338 29.6288579,45.3604963 L29.6288579,50.220383 C29.6288579,50.4115455 29.7919671,50.5751233 29.9959911,50.5751233 L31.2324913,50.5751233 C31.4365152,50.5751233 31.5996245,50.4115455 31.5996245,50.220383 L31.5996245,48.7870778 L33.8010508,48.7870778 L33.8010508,50.7254603 C33.8010508,51.7358909 32.9720492,52.5683995 31.9664831,52.5683995 L29.2619992,52.5683995 C28.2564332,52.5683995 27.4277062,51.7358909 27.4277062,50.7254603 L27.4277062,44.855419 C27.4277062,43.8452643 28.2564332,43.0124798 29.2619992,43.0124798 L31.9664831,43.0124798 C32.9720492,43.0124798 33.8010508,43.8452643 33.8010508,44.855419 L33.8010508,46.7938015 L31.5996245,46.7938015 Z" id="Fill-11" fill="#464646"></path>
                        <path d="M38.9246322,48.5957222 L38.1906403,44.4047664 L37.4431934,48.5957222 L38.9246322,48.5957222 Z M39.277761,50.575206 L37.0897899,50.575206 L36.736661,52.5684823 L34.3993104,52.5684823 L36.1929634,44.0089248 L35.6901804,43.0122867 L39.9708382,43.0122867 L41.95506,52.5684823 L39.6311645,52.5684823 L39.277761,50.575206 Z" id="Fill-13" fill="#464646"></path>
                        <polygon id="Fill-15" fill="#464646" points="49.4563301 43.0123419 49.4563301 52.5685375 47.4589277 52.5685375 45.1078473 47.7903017 45.1078473 52.5685375 42.9198762 52.5685375 42.9198762 44.00898 42.4168186 43.0123419 44.9310083 43.0123419 47.2546292 47.7903017 47.2546292 43.0123419"></polygon>
                        <path d="M54.9876298,48.5957222 L54.253638,44.4047664 L53.506191,48.5957222 L54.9876298,48.5957222 Z M55.3410332,50.575206 L53.1530621,50.575206 L52.7996587,52.5684823 L50.462308,52.5684823 L52.2562356,44.0089248 L51.753178,43.0122867 L56.0341104,43.0122867 L58.0180576,52.5684823 L55.6941621,52.5684823 L55.3410332,50.575206 Z" id="Fill-17" fill="#464646"></path>
                        <path d="M63.155204,45.3605515 C63.155204,45.169389 62.9918201,45.0055354 62.7883454,45.0055354 L61.184712,45.0055354 L61.184712,50.5616619 L62.7883454,50.5616619 C62.9918201,50.5616619 63.155204,50.3978083 63.155204,50.1931292 L63.155204,45.3605515 Z M65.3569049,44.8551983 L65.3569049,50.7255155 C65.3569049,51.7356702 64.5276287,52.5684547 63.5083329,52.5684547 L58.9832857,52.5684547 L58.9832857,44.0088972 L58.4805027,43.0122591 L63.5083329,43.0122591 C64.5276287,43.0122591 65.3569049,43.8450436 65.3569049,44.8551983 Z" id="Fill-19" fill="#464646"></path>
                        <path d="M70.4802391,48.5957222 L69.7462473,44.4047664 L68.9988004,48.5957222 L70.4802391,48.5957222 Z M70.8336426,50.575206 L68.6456715,50.575206 L68.292268,52.5684823 L65.9549173,52.5684823 L67.748845,44.0089248 L67.2457874,43.0122867 L71.5267198,43.0122867 L73.510667,52.5684823 L71.1867715,52.5684823 L70.8336426,50.575206 Z" id="Fill-21" fill="#464646"></path>
                        <g id="Group-25" transform="translate(7.963248, 17.654260)">
                            <mask id="mask-2" fill="white">
                                <use xlink:href="#path-1"></use>
                            </mask>
                            <g id="Clip-24"></g>
                            <path d="M6.57876891,29.1177222 C8.40125439,33.540666 10.7520602,36.8113935 14.0905834,39.6316615 C14.8251244,40.2520432 7.82542916,37.609697 4.26366042,33.937611 C1.85546431,31.4552566 0.104373471,28.1994249 0.0648318247,24.77174 C0.0261139624,21.3639162 1.71789233,18.0973265 4.10329708,15.6226958 C6.48897642,13.1480651 9.52626915,11.3760188 12.6245219,9.84120157 C23.2779751,4.56312961 42.097053,0.912283871 54.0397286,0.21273383 C39.7665672,4.04729421 18.4456564,7.48628883 8.0173709,18.7676366 C4.92900355,22.1084294 5.71050026,26.7826706 6.57876891,29.1177222" id="Fill-23" fill="#EE2639" mask="url(#mask-2)"></path>
                        </g>
                        <path d="M11.81779,29.0571185 L6.57248069,27.9791053 C6.30612377,27.9244874 6.2783897,27.763944 6.51152065,27.622434 L9.88656495,25.5720573 C10.1194213,25.4308232 10.1441348,25.1657335 9.9414839,24.9833981 L0.368835693,16.3744638 C0.165910159,16.1921284 0.222476681,16.0464808 0.494874691,16.0511702 L11.2227431,16.2318505 C11.4948665,16.2365399 11.6612709,16.0238612 11.5920731,15.7593232 L11.1227906,13.9591404 C11.0538673,13.6946024 11.1999517,13.5712984 11.447087,13.6852235 L16.8318904,16.1639919 C17.0790257,16.2779171 17.2058885,16.1609576 17.1133501,15.9035916 L14.6351323,9.0137409 C14.5425938,8.75665074 14.671928,8.63362262 14.922633,8.74037572 L18.9534096,10.4564249 C19.2041146,10.5634539 19.4929883,10.4431842 19.5954122,10.189956 L23.6088893,0.260814103 C23.7113131,0.00758581472 23.8829349,0.00593072787 23.9894776,0.257503929 L28.2154911,10.193542 C28.3223085,10.4448393 28.6125552,10.5576611 28.859965,10.4437359 L32.5422809,8.75306472 C32.7896908,8.63913958 32.9302833,8.76106431 32.8542205,9.02367142 L30.8716463,15.8936611 C30.7955836,16.1562682 30.9364507,16.2787446 31.1844098,16.1659229 L36.6320954,13.6835684 C36.880329,13.5704708 37.0313562,13.6957057 36.9681994,13.9618989 L36.5425775,15.7565647 C36.4796953,16.0227579 36.6507678,16.2368158 36.9228912,16.232678 L48.6653873,16.0506185 C48.9377853,16.0462049 48.9394329,16.0721346 48.6695062,16.1079948 C48.6695062,16.1079948 23.1731074,19.4951301 11.81779,29.0571185" id="Fill-26" fill="#EE2639"></path>
                    </g>
                </g>
            </g>
        </g>
    </g>
</svg>